<svg width="36" height="36" fill="none" xmlns="http://www.w3.org/2000/svg"><circle cx="18" cy="18" r="18" fill="#FACAE9"/><path d="M15.86 22.75c-.093-1.198-.093-2.397-.185-3.689 0-.645-.277-1.106-1.014-1.106-.461 0-.923.092-1.015-.554-.092-.83-.277-1.752 0-2.582 0-.092.369-.277.553-.277 1.384.277 1.66-.46 1.66-1.568 0-2.951 2.49-4.519 5.719-4.334.922.092.922.83.922 1.475-.092.646.277 1.568-.922 1.568-1.015-.092-1.753.277-1.753 1.476 0 .83.093 1.475 1.107 1.568 1.476.092 1.2 1.106 1.2 2.12.091 1.108-.462 1.476-1.477 1.476-1.014 0-1.199.554-1.199 1.476 0 2.03 0 3.966-.092 5.995-.092 1.291-.369 1.383-2.121 1.291-1.199 0-1.383-.553-1.291-1.568-.185-.83-.185-1.752-.092-2.767Z" fill="#391056"/></svg>