<svg width="36" height="36" fill="none" xmlns="http://www.w3.org/2000/svg"><circle cx="18" cy="18" r="18" fill="#FACAE9"/><path d="M17.873 26.638c-1.58 0-3.161.095-4.649 0-2.138-.189-2.974-.946-3.346-3.217-.465-2.649-.65-5.204-.372-7.853.093-.946.186-1.987.372-2.933.279-1.987 1.115-2.839 3.068-3.312.836-.19 1.58-.284 2.417-.19 1.766.095 3.532.095 5.299-.094.836-.094 1.58 0 2.417.095 1.58.19 2.695 1.04 2.881 2.65.558 3.973 1.023 7.947.28 11.921-.372 1.893-1.21 2.65-3.068 3.028-1.674.095-3.44 0-5.3-.095Zm.371-12.679c-2.138-.094-3.997 1.514-4.183 3.501-.186 2.46 1.302 4.069 3.812 4.258 1.952.095 3.811-1.608 3.997-3.785.186-1.987-1.487-3.879-3.626-3.974Zm5.764-1.514c-.093-.567-.372-.946-1.022-.946-.744 0-1.116.473-1.116 1.136 0 .662.372 1.135 1.116 1.135.743-.095 1.022-.568 1.022-1.325Z" fill="#391056"/></svg>