<svg width="36" height="36" fill="none" xmlns="http://www.w3.org/2000/svg"><circle cx="18" cy="18" r="18" fill="#FACAE9"/><path d="M18.635 26.848c-.875-.087-1.837 0-2.712-.35-1.4-.612-2.799-.612-4.199.263-.35.175-.787.437-1.137 0-.262-.263-.087-.7 0-.963.787-1.75.35-3.236-.35-4.986-1.4-3.411-1.224-6.736 1.487-9.535 2.712-2.711 6.124-3.149 9.71-2.187 1.137.35 2.1 1.05 2.974 1.925 4.2 4.461 4.374 11.984-2.099 15.133-1.225.613-2.45.613-3.674.7Zm-6.91-1.137c1.836-1.4 3.586-.438 5.335-.175 2.537.35 4.987.262 7.086-1.662 2.187-2.1 2.8-5.686 1.75-8.573-1.313-3.586-4.287-5.51-7.61-5.51-3.85 0-7.874 3.148-7.699 6.91.088 1.487.175 2.974.962 4.286.875 1.4 1.05 2.8.175 4.724Z" fill="#391056"/><path d="M19.16 19.763c.087-.088.262-.175.35-.263.35-.524.525-1.224 1.4-1.05.787.263 1.486.875 1.749 1.663.262.787-.262 1.312-.787 1.75-1.137.874-2.275.611-3.324.087-2.362-1.313-3.674-3.5-4.462-6.036-.262-.963.088-1.75 1.05-2.275.612-.35 1.137-.35 1.487.175.525.7 1.662 1.313.7 2.45-.438.524-.263 1.05.087 1.487.438.787.875 1.574 1.75 2.012Z" fill="#391056"/></svg>