<svg width="36" height="36" fill="none" xmlns="http://www.w3.org/2000/svg"><circle cx="18" cy="18" r="18" fill="#FACAE9"/><path d="M7.125 19.115c2.075-1.32 3.585-2.264 5.188-3.208 3.774-2.075 7.453-4.15 11.132-6.414 1.415-.85 1.793-.66 1.793 1.037-.095 1.227-.284 2.359-.472 3.585-.566 3.49-1.226 6.98-1.792 10.471-.19 1.038-.567 1.321-1.51.755-.472-.283-.943-.377-1.415-.566-2.453-1.038-2.736-1.038-4.528.943-.377.378-.472.944-1.227 1.038-.283-1.792-.66-3.396.66-5 1.322-1.698 2.548-3.302 3.963-5 .377-.471.66-.943.849-1.509-2.17 1.415-4.34 2.924-6.132 4.811-.66.755-1.226.85-2.17.472-1.226-.472-2.547-.85-4.339-1.415Z" fill="#391056"/></svg>